<?xml version="1.0" encoding="utf-8"?>
<!-- Generated by IcoMoon.io -->
<!DOCTYPE svg PUBLIC "-//W3C//DTD SVG 1.1//EN" "http://www.w3.org/Graphics/SVG/1.1/DTD/svg11.dtd">
<svg version="1.1" xmlns="http://www.w3.org/2000/svg" xmlns:xlink="http://www.w3.org/1999/xlink" width="1024" height="1024" viewBox="0 0 1024 1024">
<g id="icomoon-ignore">
</g>
<path d="M42.667 85.335h341.333q17.92 0 30.293 12.373t12.373 30.293v341.333q0 17.92-12.373 30.293t-30.293 12.373h-341.333q-17.92 0-30.293-12.373t-12.373-30.293v-341.333q0-17.92 12.373-30.293t30.293-12.373zM554.667 85.335h341.333q17.92 0 30.293 12.373t12.373 30.293v341.333q0 17.92-12.373 30.293t-30.293 12.373h-341.333q-17.92 0-30.293-12.373t-12.373-30.293v-341.333q0-17.92 12.373-30.293t30.293-12.373zM42.667 597.335h341.333q17.92 0 30.293 12.373t12.373 30.293v341.333q0 17.92-12.373 30.293t-30.293 12.373h-341.333q-17.92 0-30.293-12.373t-12.373-30.293v-341.333q0-17.92 12.373-30.293t30.293-12.373zM554.667 597.335h341.333q17.92 0 30.293 12.373t12.373 30.293v341.333q0 17.92-12.373 30.293t-30.293 12.373h-341.333q-17.92 0-30.293-12.373t-12.373-30.293v-341.333q0-17.92 12.373-30.293t30.293-12.373z"></path>
</svg>
