<?xml version="1.0" encoding="utf-8"?>
<!-- Generated by IcoMoon.io -->
<!DOCTYPE svg PUBLIC "-//W3C//DTD SVG 1.1//EN" "http://www.w3.org/Graphics/SVG/1.1/DTD/svg11.dtd">
<svg version="1.1" xmlns="http://www.w3.org/2000/svg" xmlns:xlink="http://www.w3.org/1999/xlink" width="1024" height="1024" viewBox="0 0 1024 1024">
<g id="icomoon-ignore">
</g>
<path d="M535.467 614.825l-12.16-12.16t-30.72-32.427-43.947-49.92-47.573-62.080-46.080-71.253q-29.44-64-29.44-120.32 0-28.16 7.467-55.68t20.907-50.987 32.64-43.52 41.813-34.347 49.707-22.187 55.253-7.893q42.24 0 80.64 17.067t66.133 45.653 44.16 67.84 16.427 81.493q0 55.893-33.28 125.013-33.707 52.053-76.587 108.587t-69.333 86.827zM534.187 349.011q14.933 0 28.8-4.693t25.173-13.227 19.627-19.627 13.013-25.173 4.693-29.013q0-37.547-26.88-64.427t-64.64-26.88-64.64 26.88-26.88 64.427q0 24.747 12.373 45.867t33.493 33.493 45.867 12.373zM85.333 1023.998q-12.8 0-23.467-7.253-19.2-12.373-19.2-35.413v-640q0-12.8 7.040-23.467t18.987-15.787l182.187-78.080q-2.133 17.92-2.133 33.28 0 25.173 6.4 57.6l-127.147 54.613v546.987l213.333-91.307v-327.68q38.827 53.76 85.333 105.387v222.293l213.333 91.307v-315.733q46.080-56.32 85.333-111.36v427.093l213.333-91.307v-546.987l-132.693 56.747q11.52-42.667 11.52-80.213 0-2.56-0.853-17.493l148.053-63.147q7.68-3.413 16.64-3.413 12.8 0 23.467 6.827 19.2 12.8 19.2 35.84v640q0 12.8-7.040 23.467t-18.987 15.787l-300.373 128.427q-8.107 2.987-14.933 2.987t-14.933-2.987l-283.733-121.173-282.027 120.747q-7.68 3.413-16.64 3.413z"></path>
</svg>
