<?xml version="1.0" encoding="utf-8"?>
<!-- Generated by IcoMoon.io -->
<!DOCTYPE svg PUBLIC "-//W3C//DTD SVG 1.1//EN" "http://www.w3.org/Graphics/SVG/1.1/DTD/svg11.dtd">
<svg version="1.1" xmlns="http://www.w3.org/2000/svg" xmlns:xlink="http://www.w3.org/1999/xlink" width="1024" height="1024" viewBox="0 0 1024 1024">
<g id="icomoon-ignore">
</g>
<path fill="#000" d="M512 42.667c259.2 0 469.333 210.133 469.333 469.333 0 259.243-210.133 469.333-469.333 469.333s-469.333-210.091-469.333-469.333c0-259.2 210.133-469.333 469.333-469.333zM512 140.459c-192 0-349.952 145.621-369.493 332.416h177.877c18.091-89.259 96.981-156.416 191.616-156.416s173.525 67.157 191.616 156.416h177.877c-19.541-186.795-177.493-332.416-369.493-332.416zM142.507 551.125c19.541 186.795 177.493 332.416 369.493 332.416s349.952-145.621 369.493-332.416h-177.877c-18.091 89.259-96.981 156.416-191.616 156.416s-173.525-67.157-191.616-156.416h-177.877zM512 394.667c-64.811 0-117.333 52.523-117.333 117.333s52.523 117.333 117.333 117.333 117.333-52.523 117.333-117.333c0-64.811-52.523-117.333-117.333-117.333zM512 453.333c32.427 0 58.667 26.283 58.667 58.667s-26.24 58.667-58.667 58.667-58.667-26.283-58.667-58.667 26.24-58.667 58.667-58.667z"></path>
</svg>
