<?xml version="1.0" encoding="utf-8"?>
<!-- Generated by IcoMoon.io -->
<!DOCTYPE svg PUBLIC "-//W3C//DTD SVG 1.1//EN" "http://www.w3.org/Graphics/SVG/1.1/DTD/svg11.dtd">
<svg version="1.1" xmlns="http://www.w3.org/2000/svg" xmlns:xlink="http://www.w3.org/1999/xlink" width="1024" height="1024" viewBox="0 0 1024 1024">
<g id="icomoon-ignore">
</g>
<path d="M64 1024q-4.267 0-8.32-1.707t-6.827-4.48-4.48-6.827-1.707-8.32v-100.267q0-34.133 8.747-51.2t33.92-31.573q220.16-125.013 298.667-159.147v-160.427q-42.667-31.147-42.667-95.573v-127.147q0-40.107 12.16-74.667t35.627-60.8 60.587-41.387 83.627-15.147 83.627 15.147 60.587 41.387 35.627 60.8 12.16 74.667v127.147q0 64-42.667 95.147v160.853q18.773 7.68 43.733 19.627t51.413 25.813 52.053 27.733 51.627 28.587 44.373 25.173 35.627 20.48 19.84 11.733q25.173 14.507 33.92 31.573t8.747 51.2v100.267q0 8.96-6.187 15.147t-15.147 6.187h-938.667z"></path>
</svg>
