<?xml version="1.0" encoding="utf-8"?>
<!-- Generated by IcoMoon.io -->
<!DOCTYPE svg PUBLIC "-//W3C//DTD SVG 1.1//EN" "http://www.w3.org/Graphics/SVG/1.1/DTD/svg11.dtd">
<svg version="1.1" xmlns="http://www.w3.org/2000/svg" xmlns:xlink="http://www.w3.org/1999/xlink" width="1024" height="1024" viewBox="0 0 1024 1024">
<g id="icomoon-ignore">
</g>
<path d="M15.787 630.613q-16.213-63.147-16.213-128.427 0-79.36 24.32-155.52t72.533-142.72q73.387-101.973 183.253-157.013t231.040-55.040q151.893 0 279.893 83.627l2.56 1.707 63.147-87.040q4.693-6.4 9.813-6.4 6.4 0 8.96 9.387l82.347 264.96q0.853 2.987 0.853 5.547 0 3.413-1.067 6.187t-3.2 4.693-5.12 2.987-6.4 1.067l-277.333 5.12q-12.373 0-12.373-8.533 0-3.84 3.413-8.533l61.867-85.333q-95.147-61.013-207.787-61.013-59.733 0-116.48 17.92t-106.88 53.76-86.827 87.040q-72.533 100.267-72.533 224 0 63.573 20.48 124.16l-8.533 1.28zM165.973 1017.6q-4.693 6.4-9.813 6.4-5.973 0-8.96-9.387l-82.347-264.96q-0.853-2.987-0.853-5.547 0-6.4 4.267-10.667t11.52-4.267l277.333-5.12q12.373 0 12.373 8.533 0 3.84-3.413 8.533l-61.867 85.333q95.147 61.44 207.36 61.44 90.88 0 173.227-41.387t137.387-117.76q72.533-99.84 72.533-223.573 0-62.72-19.627-122.453l131.84-2.56q15.36 61.867 15.36 125.44 0 39.253-5.76 77.867t-17.707 76.373-30.293 74.24-42.667 69.76q-73.387 101.973-183.253 157.013t-231.040 55.040q-151.893 0-279.893-83.627l-2.56-1.707z"></path>
</svg>
