<?xml version="1.0" encoding="utf-8"?>
<!-- Generated by IcoMoon.io -->
<!DOCTYPE svg PUBLIC "-//W3C//DTD SVG 1.1//EN" "http://www.w3.org/Graphics/SVG/1.1/DTD/svg11.dtd">
<svg version="1.1" xmlns="http://www.w3.org/2000/svg" xmlns:xlink="http://www.w3.org/1999/xlink" width="1024" height="1024" viewBox="0 0 1024 1024">
<g id="icomoon-ignore">
</g>
<path d="M125.867 981.76l-90.453-90.453q-12.373-12.373-12.373-30.080t12.373-30.080l491.52-491.52q-11.947-37.12-11.947-75.52 0-66.133 33.707-124.373t93.867-91.947q62.72-35.413 124.16-35.413 66.987 0 126.72 42.24l-212.053 113.493 118.613 190.293 206.080-103.68q0.427 9.813 0.427 19.2 0 44.373-15.573 82.773t-42.88 66.987-65.707 50.347q-59.307 33.28-125.44 33.28-42.24 0-81.92-14.080l-488.533 488.533q-12.8 12.373-30.507 12.373t-30.080-12.373zM304.64 458.24l-128-125.867q-6.4-6.4-17.067-10.453t-19.627-3.627l-22.187 0.853q-8.533 0.427-18.347-4.693t-14.507-12.373l-78.080-121.173q-4.267-5.973-4.267-14.080 0-11.52 7.68-19.2l61.44-61.44q7.253-7.253 18.773-7.253 8.107 0 14.080 3.84l121.173 78.507q7.253 5.12 12.373 14.72t4.693 18.56l-0.853 22.187q-0.427 8.96 3.627 19.627t10.453 16.64l130.56 128.853zM802.133 1018.027q-6.4 5.973-14.933 5.973-8.96 0-14.933-6.827l-246.187-271.36 150.613-157.867 273.92 250.88q6.827 6.4 6.827 15.36 0 8.107-5.973 14.507z"></path>
</svg>
