<?xml version="1.0" encoding="utf-8"?>
<!-- Generated by IcoMoon.io -->
<!DOCTYPE svg PUBLIC "-//W3C//DTD SVG 1.1//EN" "http://www.w3.org/Graphics/SVG/1.1/DTD/svg11.dtd">
<svg version="1.1" xmlns="http://www.w3.org/2000/svg" xmlns:xlink="http://www.w3.org/1999/xlink" width="1024" height="1024" viewBox="0 0 1024 1024">
<g id="icomoon-ignore">
</g>
<path d="M42.667 85.334h170.667q17.92 0 30.293 12.373t12.373 30.293v170.667q0 17.92-12.373 30.293t-30.293 12.373h-170.667q-17.92 0-30.293-12.373t-12.373-30.293v-170.667q0-17.92 12.373-30.293t30.293-12.373zM384 85.334h170.667q17.92 0 30.293 12.373t12.373 30.293v170.667q0 17.92-12.373 30.293t-30.293 12.373h-170.667q-17.92 0-30.293-12.373t-12.373-30.293v-170.667q0-17.92 12.373-30.293t30.293-12.373zM725.333 85.334h170.667q17.92 0 30.293 12.373t12.373 30.293v170.667q0 17.92-12.373 30.293t-30.293 12.373h-170.667q-17.92 0-30.293-12.373t-12.373-30.293v-170.667q0-17.92 12.373-30.293t30.293-12.373zM42.667 426.668h170.667q17.92 0 30.293 12.373t12.373 30.293v170.667q0 17.92-12.373 30.293t-30.293 12.373h-170.667q-17.92 0-30.293-12.373t-12.373-30.293v-170.667q0-17.92 12.373-30.293t30.293-12.373zM384 426.668h170.667q17.92 0 30.293 12.373t12.373 30.293v170.667q0 17.92-12.373 30.293t-30.293 12.373h-170.667q-17.92 0-30.293-12.373t-12.373-30.293v-170.667q0-17.92 12.373-30.293t30.293-12.373zM725.333 426.668h170.667q17.92 0 30.293 12.373t12.373 30.293v170.667q0 17.92-12.373 30.293t-30.293 12.373h-170.667q-17.92 0-30.293-12.373t-12.373-30.293v-170.667q0-17.92 12.373-30.293t30.293-12.373zM42.667 768.001h170.667q17.92 0 30.293 12.373t12.373 30.293v170.667q0 17.92-12.373 30.293t-30.293 12.373h-170.667q-17.92 0-30.293-12.373t-12.373-30.293v-170.667q0-17.92 12.373-30.293t30.293-12.373zM384 768.001h170.667q17.92 0 30.293 12.373t12.373 30.293v170.667q0 17.92-12.373 30.293t-30.293 12.373h-170.667q-17.92 0-30.293-12.373t-12.373-30.293v-170.667q0-17.92 12.373-30.293t30.293-12.373zM725.333 768.001h170.667q17.92 0 30.293 12.373t12.373 30.293v170.667q0 17.92-12.373 30.293t-30.293 12.373h-170.667q-17.92 0-30.293-12.373t-12.373-30.293v-170.667q0-17.92 12.373-30.293t30.293-12.373z"></path>
</svg>
