<?xml version="1.0" encoding="utf-8"?>
<!-- Generated by IcoMoon.io -->
<!DOCTYPE svg PUBLIC "-//W3C//DTD SVG 1.1//EN" "http://www.w3.org/Graphics/SVG/1.1/DTD/svg11.dtd">
<svg version="1.1" xmlns="http://www.w3.org/2000/svg" xmlns:xlink="http://www.w3.org/1999/xlink" width="1024" height="1024" viewBox="0 0 1024 1024">
<g id="icomoon-ignore">
</g>
<path d="M512 39.252q99.84 0 191.147 38.827t157.44 104.96 104.96 157.44 38.827 191.147-38.827 191.147-104.96 157.44-157.44 104.96-191.147 38.827-191.147-38.827-157.44-104.96-104.96-157.44-38.827-191.147 38.827-191.147 104.96-157.44 157.44-104.96 191.147-38.827zM512 167.252q-98.987 0-183.040 48.64t-132.693 132.693-48.64 183.040 48.64 183.040 132.693 132.693 183.040 48.64 183.040-48.64 132.693-132.693 48.64-183.040-48.64-183.040-132.693-132.693-183.040-48.64zM448 275.625h42.667q8.533 0 14.933 6.4t6.4 14.933v234.667h149.333q8.533 0 14.933 6.4t6.4 14.933v42.667q0 8.533-6.4 14.933t-14.933 6.4h-213.333q-8.533 0-14.933-6.4t-6.4-14.933v-298.667q0-8.533 6.4-14.933t14.933-6.4z"></path>
</svg>
